{"title":"The Pirates Band of Misfits 2012 R5 CAM AUDIO XviD-YanKeeS","uid":7297273,"size":734147262,"categoryP":"video","categoryS":"movies","magnet":"?xt=urn:btih:c36f8432c90467decef8471949e2f23dac911ec7&amp;dn=The+Pirates+Band+of+Misfits+2012+R5+CAM+AUDIO+XviD-YanKeeS&amp;tr=udp%3A%2F%2Ftracker.openbittorrent.com%3A80&amp;tr=udp%3A%2F%2Fopen.demonii.com%3A1337&amp;tr=udp%3A%2F%2Ftracker.coppersurfer.tk%3A6969&amp;tr=udp%3A%2F%2Fexodus.desync.com%3A6969","seeders":1,"leechers":0,"uploader":"HeroMaster","files":-1,"time":1337921401,"description":"The Pirates Band of Misfits 2012 R5 CAM AUDIO XviD-YanKeeS\n\nIMDB link: http://www.imdb.com/title/tt1430626/\n\nGeneral\nFormat                           : AVI\nFormat/Info                      : Audio Video Interleave\nFormat profile                   : OpenDML\nFile size                        : 700 MiB\nDuration                         : 1h 24mn\nOverall bit rate                 : 1 158 Kbps\n\nVideo\nID                               : 0\nFormat                           : MPEG-4 Visual\nFormat profile                   : Advanced Simple@L5\nFormat settings, BVOP            : 2\nFormat settings, QPel            : No\nFormat settings, GMC             : No warppoints\nFormat settings, Matrix          : Default (MPEG)\nMuxing mode                      : Packed bitstream\nCodec ID                         : XVID\nCodec ID/Hint                    : XviD\nDuration                         : 1h 24mn\nBit rate                         : 1 022 Kbps\nWidth                            : 640 pixels\nHeight                           : 272 pixels\nDisplay aspect ratio             : 2.35:1\nFrame rate                       : 25.000 fps\nColor space                      : YUV\nChroma subsampling               : 4:2:0\nBit depth                        : 8 bits\nScan type                        : Progressive\nCompression mode                 : Lossy\nBits/(Pixel*Frame)               : 0.235\nStream size                      : 618 MiB (88%)\nWriting library                  : XviD 64\n\nAudio\nID                               : 1\nFormat                           : MPEG Audio\nFormat version                   : Version 1\nFormat profile                   : Layer 3\nMode                             : Joint stereo\nMode extension                   : MS Stereo\nCodec ID                         : 55\nCodec ID/Hint                    : MP3\nDuration                         : 1h 24mn\nBit rate mode                    : Constant\nBit rate                         : 128 Kbps\nChannel(s)                       : 2 channels\nSampling rate                    : 48.0 KHz\nCompression mode                 : Lossy\nStream size                      : 77.3 MiB (11%)\nAlignment                        : Aligned on interleaves\nInterleave, duration             : 24 ms (0.60 video frame)\nInterleave, preload duration     : 192 ms\nTitle                            : English - YanKeeS\n\n\nNotes:\nUsed Cam audio BBnRG (Thanks).\nThe final part of the movie was filled with Russian audio, but not interefe anything, because it only has only 3 min of Russian audio.\n\n\nPoster:\n\n &lt;a href=&quot;\nhttp://i.imgur.com/RoApK.jpg&quot; rel=&quot;nofollow&quot; target=&quot;_NEW&quot;&gt;\nhttp://i.imgur.com/RoApK.jpg&lt;/a&gt;\n\n\nScreenshots:\n\n &lt;a href=&quot;\nhttp://i.imgur.com/nAdyx.png&quot; rel=&quot;nofollow&quot; target=&quot;_NEW&quot;&gt;\nhttp://i.imgur.com/nAdyx.png&lt;/a&gt;\n\n &lt;a href=&quot;\nhttp://i.imgur.com/5w2tP.png&quot; rel=&quot;nofollow&quot; target=&quot;_NEW&quot;&gt;\nhttp://i.imgur.com/5w2tP.png&lt;/a&gt;\n\n &lt;a href=&quot;\nhttp://i.imgur.com/i0Qoh.png&quot; rel=&quot;nofollow&quot; target=&quot;_NEW&quot;&gt;\nhttp://i.imgur.com/i0Qoh.png&lt;/a&gt;\n\n\nENJOY!","torrent":{"xt":"urn:btih:c36f8432c90467decef8471949e2f23dac911ec7","amp;dn":"The+Pirates+Band+of+Misfits+2012+R5+CAM+AUDIO+XviD-YanKeeS","amp;tr":["udp%3A%2F%2Ftracker.openbittorrent.com%3A80","udp%3A%2F%2Fopen.demonii.com%3A1337","udp%3A%2F%2Ftracker.coppersurfer.tk%3A6969","udp%3A%2F%2Fexodus.desync.com%3A6969"],"infoHash":"c36f8432c90467decef8471949e2f23dac911ec7","infoHashBuffer":{"type":"Buffer","data":[195,111,132,50,201,4,103,222,206,248,71,25,73,226,242,61,172,145,30,199]},"announce":[],"urlList":[]}}